# xmcd
#
# Track frame offsets: 
#        150
#        19684
#        38343
#        55017
#        69078
#        92738
#        114111
#        127905
#        138741
#        160125
#        178116
#        195370
#        220765
#
# Disc length: 3061 seconds
#
# Revision: 0
# Processed by: cddbd v1.5.2PL0 Copyright (c) Steve Scherf et al.
# Submitted via: ExactAudioCopy v1.3
#
DISCID=9d0bf30d
DTITLE=Justin Johnson - If Walls Could Talk
DYEAR=2016
DGENRE=Blues
TTITLE0=Summertime
TTITLE1=Tennessee Turkey (and a Carolina Chick)
TTITLE2=Wayfaring Stranger
TTITLE3=Snowy Morning Coming Down
TTITLE4=Twilight
TTITLE5=Wood and Weed
TTITLE6=Thistletop Dirge
TTITLE7=Cutting the Body Loose
TTITLE8=The Red Road
TTITLE9=When That Full Moon Rises
TTITLE10=Abracadabra
TTITLE11=We'll Meet Again
TTITLE12=Untitled
EXTD=
EXTT0=
EXTT1=
EXTT2=
EXTT3=
EXTT4=
EXTT5=
EXTT6=
EXTT7=
EXTT8=
EXTT9=
EXTT10=
EXTT11=
EXTT12=
PLAYORDER=
